<?xml version="1.0" standalone="no"?>
<!DOCTYPE svg PUBLIC "-//W3C//DTD SVG 20010904//EN"
 "http://www.w3.org/TR/2001/REC-SVG-20010904/DTD/svg10.dtd">
<svg version="1.0" xmlns="http://www.w3.org/2000/svg"
 width="600.000000pt" height="600.000000pt" viewBox="0 0 600.000000 600.000000"
 preserveAspectRatio="xMidYMid meet">
<metadata>
Created by potrace 1.11, written by Peter Selinger 2001-2013
</metadata>
<g transform="translate(0.000000,600.000000) scale(0.100000,-0.100000)"
fill="#000000" stroke="none">
<path d="M151 5986 c-49 -18 -105 -69 -129 -118 l-21 -43 0 -2825 c0 -2788 0
-2826 19 -2864 28 -57 58 -85 114 -112 l49 -23 2816 0 c2791 0 2816 0 2861 20
60 27 88 54 116 113 l23 49 -2 2826 -2 2826 -22 40 c-26 49 -55 76 -110 104
l-42 21 -2818 -1 c-2189 0 -2826 -3 -2852 -13z"/>
</g>
</svg>
